<?xml version="1.0" encoding="utf-8"?>
<!-- Generator: Adobe Illustrator 17.0.0, SVG Export Plug-In . SVG Version: 6.00 Build 0)  -->
<!DOCTYPE svg PUBLIC "-//W3C//DTD SVG 1.1//EN" "http://www.w3.org/Graphics/SVG/1.1/DTD/svg11.dtd">
<svg version="1.1" id="Layer_1" xmlns="http://www.w3.org/2000/svg" xmlns:xlink="http://www.w3.org/1999/xlink" x="0px" y="0px"
	 width="200px" height="200px" viewBox="0 0 200 200" enable-background="new 0 0 200 200" xml:space="preserve">
<path fill="#FFFFFF" d="M33.333,41.667v116.667c0,4.602,3.731,8.333,8.333,8.333h0h116.667c4.602,0,8.333-3.731,8.333-8.333
	c0,0,0,0,0,0V91.667H150V150H50V50h58.333V33.333H41.667C37.064,33.333,33.333,37.064,33.333,41.667
	C33.333,41.667,33.333,41.667,33.333,41.667z"/>
<path fill="#FFFFFF" d="M125,50c0,13.807,11.193,25,25,25s25-11.193,25-25s-11.193-25-25-25S125,36.193,125,50z"/>
</svg>
